<svg id="logo_big_2" xmlns="http://www.w3.org/2000/svg" viewBox="0 0 498 178.53"><defs><style>.cls-1{fill:#cc2037;}.cls-2{fill:#233b77;}</style></defs><g id="logo"><path class="cls-1" d="M1782,386.92a14.53,14.53,0,0,1,5.48-5.65,15.05,15.05,0,0,1,7.74-2,15.72,15.72,0,0,1,8.92,2.47,14,14,0,0,1,5.41,7h-3.65a10.72,10.72,0,0,0-4.07-4.94,12.92,12.92,0,0,0-12.77-.18,11.15,11.15,0,0,0-4.3,4.61,16.26,16.26,0,0,0,0,13.9,11.16,11.16,0,0,0,4.3,4.59,13,13,0,0,0,12.77-.16,10.64,10.64,0,0,0,4.07-4.87h3.65a13.87,13.87,0,0,1-5.43,6.89,15.81,15.81,0,0,1-8.9,2.45,15.05,15.05,0,0,1-7.74-2,14.61,14.61,0,0,1-5.48-5.63,17.81,17.81,0,0,1,0-16.4Z" transform="translate(-1773.63 -232.48)"/><path class="cls-1" d="M1841.15,409a14.54,14.54,0,0,1-5.54-5.65,17.62,17.62,0,0,1,0-16.42,14.54,14.54,0,0,1,5.54-5.65,16.28,16.28,0,0,1,15.71,0,14.4,14.4,0,0,1,5.51,5.65,17.77,17.77,0,0,1,0,16.42,14.4,14.4,0,0,1-5.51,5.65,16.21,16.21,0,0,1-15.71,0Zm14.06-2.29a11.39,11.39,0,0,0,4.36-4.6,14.6,14.6,0,0,0,1.6-7,14.42,14.42,0,0,0-1.6-6.94,11.4,11.4,0,0,0-4.36-4.58,12.93,12.93,0,0,0-12.46,0,11.4,11.4,0,0,0-4.36,4.58,14.42,14.42,0,0,0-1.6,6.94,14.6,14.6,0,0,0,1.6,7,11.39,11.39,0,0,0,4.36,4.6,12.93,12.93,0,0,0,12.46,0Z" transform="translate(-1773.63 -232.48)"/><path class="cls-1" d="M1919.73,380v30.71h-3.12V386.19l-10.94,24.52h-2.27l-11-24.43v24.43h-3.11V380h3.29l11.88,26.61L1916.39,380Z" transform="translate(-1773.63 -232.48)"/><path class="cls-1" d="M1963.34,395c-1.76,1.63-4.38,2.45-7.88,2.45h-6.27v13.26h-3.12V379.6h9.39q5.2,0,7.85,2.45a9.27,9.27,0,0,1,0,12.95Zm-.58-6.45a6.1,6.1,0,0,0-1.74-4.72q-1.74-1.6-5.56-1.6h-6.27v12.55h6.27Q1962.75,394.78,1962.76,388.55Z" transform="translate(-1773.63 -232.48)"/><path class="cls-1" d="M1993.41,379.6v19.58q0,4.63,2.21,6.85a9.25,9.25,0,0,0,12,0q2.16-2.21,2.16-6.88V379.6h3.11v19.54q0,5.91-3.13,8.9a12.68,12.68,0,0,1-16.33,0q-3.14-3-3.14-8.9V379.6Z" transform="translate(-1773.63 -232.48)"/><path class="cls-1" d="M2057.31,379.6v2.58h-8.63v28.53h-3.11V382.18h-8.68V379.6Z" transform="translate(-1773.63 -232.48)"/><path class="cls-1" d="M2084.63,382.14v11.61h11.79v2.58h-11.79v11.79h13.13v2.59h-16.24V379.56h16.24v2.58Z" transform="translate(-1773.63 -232.48)"/><path class="cls-1" d="M2139.72,410.71l-7.7-13h-5.74v13h-3.11V379.6h9.34q5.2,0,7.9,2.49a8.54,8.54,0,0,1,2.69,6.55,8.85,8.85,0,0,1-1.94,5.76,9.26,9.26,0,0,1-5.71,3.09l8,13.22Zm-13.44-15.53h6.27a7.66,7.66,0,0,0,5.5-1.78,6.33,6.33,0,0,0,1.85-4.76,6.2,6.2,0,0,0-1.78-4.74c-1.19-1.12-3.06-1.67-5.61-1.67h-6.23Z" transform="translate(-1773.63 -232.48)"/><path class="cls-1" d="M2219,397.31a7.66,7.66,0,0,1,1.82,5.07,7.89,7.89,0,0,1-1.17,4.25,8.12,8.12,0,0,1-3.45,3,12.58,12.58,0,0,1-5.43,1.09H2200V379.6h10.46c3.14,0,5.54.73,7.18,2.18a7.19,7.19,0,0,1,2.47,5.65,7,7,0,0,1-1.55,4.7,8.18,8.18,0,0,1-4,2.51A7.51,7.51,0,0,1,2219,397.31Zm-15.88-4h7.25a7.17,7.17,0,0,0,4.87-1.49,5.16,5.16,0,0,0,1.71-4.11,5,5,0,0,0-1.71-4.05,7.49,7.49,0,0,0-5-1.47h-7.11Zm12.7,13.13a5.48,5.48,0,0,0,1.89-4.41,5.54,5.54,0,0,0-2-4.47,8,8,0,0,0-5.32-1.67h-7.29v12.15h7.43A7.9,7.9,0,0,0,2215.83,406.48Z" transform="translate(-1773.63 -232.48)"/><path class="cls-1" d="M2263.91,381.47a13.12,13.12,0,0,1,5.65,5.38,17,17,0,0,1,2,8.37,16.78,16.78,0,0,1-2,8.3,13,13,0,0,1-5.65,5.34,19.67,19.67,0,0,1-8.86,1.85h-9.21V379.6h9.21A19.41,19.41,0,0,1,2263.91,381.47Zm1,23.25q3.4-3.41,3.41-9.5t-3.41-9.59q-3.4-3.45-9.9-3.45H2249v25.94h6.09Q2261.55,408.12,2265,404.72Z" transform="translate(-1773.63 -232.48)"/><path class="cls-2" d="M1823.59,343.14a5.54,5.54,0,0,1,0-5.46l4.66-8.22a36.6,36.6,0,1,1,30.66-62l16-16a59.28,59.28,0,1,0-46.17,100.93Z" transform="translate(-1773.63 -232.48)"/><path class="cls-1" d="M1891.1,281.65h-42.86a19.17,19.17,0,1,0,.55,22.3h19.12a36.76,36.76,0,0,1-26.54,24.82l-5,8.91a5.54,5.54,0,0,0,0,5.46l4.94,8.73a59.29,59.29,0,0,0,49.83-70.22Z" transform="translate(-1773.63 -232.48)"/><path class="cls-2" d="M1903.18,346.82h44.61v3h-47.91V233.47h3.3Z" transform="translate(-1773.63 -232.48)"/><path class="cls-2" d="M1971.83,343.6a52.08,52.08,0,0,1-19.74-21.07Q1945,309,1945,291.8t7.11-30.73A52.08,52.08,0,0,1,1971.83,240a58.41,58.41,0,0,1,57.34,0,52.15,52.15,0,0,1,19.74,21.07q7.11,13.55,7.11,30.73t-7.11,30.73a52.15,52.15,0,0,1-19.74,21.07,58.48,58.48,0,0,1-57.34,0Zm55.11-2.32a48.53,48.53,0,0,0,18.75-19.66q6.86-12.8,6.86-29.82T2045.69,262a48.62,48.62,0,0,0-18.75-19.67,54.45,54.45,0,0,0-52.88,0A48.62,48.62,0,0,0,1955.31,262q-6.86,12.79-6.86,29.82t6.86,29.82a48.53,48.53,0,0,0,18.75,19.66,54.38,54.38,0,0,0,52.88,0Z" transform="translate(-1773.63 -232.48)"/><path class="cls-2" d="M2127.23,299.48a28.85,28.85,0,0,1,6.94,19.25q0,13.71-9.42,22.39t-27.43,8.67h-33.38V233.47h33.38q17.35,0,25.77,7.85t8.43,20.57q0,11.57-6.19,18.51a28.15,28.15,0,0,1-15.45,8.92A29.37,29.37,0,0,1,2127.23,299.48Zm-60-11.81h31.06q14.54,0,22.22-6.86t7.69-18.92q0-11.56-7.6-18.34t-23.3-6.77h-30.07ZM2122,339.05q8.83-7.43,8.84-20.32,0-12.72-9.09-20.24T2097,291h-29.74v55.52h30.07Q2113.17,346.49,2122,339.05Z" transform="translate(-1773.63 -232.48)"/><path class="cls-2" d="M2204.88,317.74h-57.5l-12.22,32.05h-3.8l43.12-112.85h3.3l43,112.85h-3.8Zm-1.16-3-27.59-72.53-27.59,72.53Z" transform="translate(-1773.63 -232.48)"/><path class="cls-2" d="M2227,346.82h44.61v3h-47.92V233.47H2227Z" transform="translate(-1773.63 -232.48)"/></g></svg>